<svg width="386" height="386" viewBox="0 0 386 386" fill="none" 
    xmlns="http://www.w3.org/2000/svg">
    <path d="M141.979 369.391C139.639 368.716 137.188 370.057 136.514 372.397C135.826 374.735 137.168 377.185 139.508 377.86C139.92 377.983 140.34 378.044 140.742 378.044C142.658 378.044 144.418 376.794 144.972 374.866C145.658 372.519 144.316 370.071 141.979 369.391Z" fill="white"/>
    <path d="M339.918 76.541C337.973 78.028 337.615 80.795 339.1 82.726C339.959 83.866 341.276 84.46 342.602 84.46C343.534 84.46 344.477 84.159 345.29 83.548C347.216 82.066 347.587 79.298 346.104 77.362C344.623 75.431 341.848 75.058 339.918 76.541Z" fill="white"/>
    <path d="M202.459 376.479C200.025 376.601 198.148 378.668 198.271 381.103C198.39 383.466 200.337 385.302 202.675 385.302C202.757 385.302 202.816 385.291 202.898 385.291C205.337 385.171 207.207 383.104 207.091 380.668C206.967 378.233 204.889 376.358 202.459 376.479Z" fill="white"/>
    <path d="M113.463 358.426C111.275 357.358 108.633 358.275 107.574 360.469C106.506 362.66 107.424 365.298 109.623 366.357V366.367C110.236 366.659 110.893 366.811 111.533 366.811C113.172 366.811 114.744 365.893 115.519 364.321C116.574 362.121 115.662 359.48 113.463 358.426Z" fill="white"/>
    <path d="M232.742 372.438C230.367 372.96 228.855 375.31 229.381 377.695C229.828 379.753 231.66 381.169 233.686 381.169C234.004 381.169 234.323 381.129 234.639 381.058C237.014 380.539 238.522 378.185 237.996 375.8C237.482 373.425 235.121 371.917 232.742 372.438Z" fill="white"/>
    <path d="M57.6241 323.076C55.9111 324.795 55.9111 327.593 57.6241 329.312C58.4911 330.178 59.6211 330.612 60.7501 330.612C61.8801 330.612 63.0101 330.178 63.8661 329.312C65.5951 327.592 65.5951 324.794 63.8661 323.076C62.1461 321.356 59.3491 321.356 57.6241 323.076Z" fill="white"/>
    <path d="M87.1911 342.833C85.2011 341.422 82.4431 341.88 81.0361 343.866C79.6201 345.843 80.0841 348.605 82.0761 350.016C82.8361 350.572 83.7381 350.839 84.6161 350.839C85.9981 350.839 87.3581 350.193 88.2211 348.983C89.6331 347.008 89.1741 344.245 87.1911 342.833Z" fill="white"/>
    <path d="M374.66 166.187C374.972 168.385 376.861 169.963 379.025 169.963C379.226 169.963 379.443 169.953 379.66 169.918C382.064 169.575 383.738 167.332 383.387 164.922C383.039 162.502 380.799 160.839 378.395 161.181C375.98 161.534 374.312 163.771 374.66 166.187Z" fill="white"/>
    <path d="M371.83 139.522C372.289 139.522 372.758 139.452 373.217 139.3C375.531 138.525 376.793 136.034 376.022 133.725C375.27 131.415 372.774 130.156 370.454 130.922C368.147 131.683 366.886 134.179 367.653 136.493C368.262 138.348 369.986 139.522 371.83 139.522Z" fill="white"/>
    <path d="M261.928 363.428C259.676 364.341 258.58 366.902 259.489 369.171C260.184 370.884 261.833 371.928 263.577 371.928C264.132 371.928 264.692 371.831 265.231 371.61C267.491 370.702 268.583 368.122 267.674 365.864C266.752 363.604 264.191 362.515 261.928 363.428Z" fill="white"/>
    <path d="M171.914 375.456C169.498 375.179 167.305 376.902 167.027 379.333C166.746 381.747 168.474 383.937 170.894 384.213C171.076 384.244 171.248 384.253 171.408 384.253C173.617 384.253 175.533 382.595 175.785 380.352C176.072 377.927 174.338 375.738 171.914 375.456Z" fill="white"/>
    <path d="M357.451 102.458C355.305 103.597 354.484 106.269 355.633 108.417C356.43 109.919 357.953 110.761 359.531 110.761C360.23 110.761 360.935 110.594 361.601 110.242C363.747 109.102 364.566 106.43 363.419 104.272C362.273 102.125 359.605 101.309 357.451 102.458Z" fill="white"/>
    <path d="M370.631 253.943C368.342 253.121 365.807 254.306 364.99 256.594C364.152 258.882 365.338 261.413 367.636 262.245C368.124 262.423 368.634 262.508 369.132 262.508C370.931 262.508 372.626 261.389 373.278 259.594C374.111 257.3 372.924 254.77 370.631 253.943Z" fill="white"/>
    <path d="M358.248 282.688C356.131 281.488 353.445 282.234 352.246 284.363C351.045 286.48 351.791 289.172 353.908 290.378C354.599 290.765 355.336 290.946 356.082 290.946C357.619 290.946 359.115 290.134 359.928 288.708C361.119 286.581 360.381 283.889 358.248 282.688Z" fill="white"/>
    <path d="M335.02 309.575C333.477 311.46 333.758 314.238 335.645 315.786C336.465 316.457 337.45 316.789 338.438 316.789C339.711 316.789 340.977 316.229 341.848 315.156C343.399 313.27 343.11 310.497 341.225 308.944C339.332 307.412 336.555 307.685 335.02 309.575Z" fill="white"/>
    <path d="M313.773 331.53C311.939 333.133 311.757 335.926 313.355 337.761C314.226 338.754 315.457 339.263 316.681 339.263C317.716 339.263 318.749 338.91 319.585 338.175C321.421 336.571 321.603 333.778 319.999 331.944C318.396 330.108 315.609 329.927 313.773 331.53Z" fill="white"/>
    <path d="M378.172 223.562C375.777 223.12 373.463 224.687 373.02 227.091C372.569 229.481 374.145 231.779 376.54 232.234C376.808 232.285 377.079 232.315 377.362 232.315C379.444 232.315 381.296 230.837 381.692 228.714V228.725C382.141 226.32 380.559 224.017 378.172 223.562Z" fill="white"/>
    <path d="M289.191 349.665C287.115 350.939 286.474 353.663 287.746 355.734C288.58 357.086 290.023 357.837 291.512 357.837C292.297 357.837 293.088 357.625 293.811 357.182C295.887 355.901 296.543 353.188 295.258 351.112C293.98 349.034 291.264 348.378 289.191 349.665Z" fill="white"/>
    <path d="M380.859 192.377C378.425 192.307 376.382 194.222 376.318 196.651C376.232 199.091 378.154 201.119 380.582 201.199H380.73C383.105 201.199 385.06 199.319 385.13 196.928C385.211 194.494 383.291 192.453 380.859 192.377Z" fill="white"/>
    <path d="M128.088 206.534C131.869 192.317 138.498 178.997 147.508 167.382V230.995L125.82 252.683C123.34 237.351 124.1 221.577 128.088 206.534ZM173.334 143.284V205.172L153.684 224.814V160.092C154.666 159.033 155.661 157.985 156.694 156.957C161.799 151.844 167.381 147.271 173.334 143.284ZM252.414 126.082L205.338 173.165V128.624C205.647 128.533 205.953 128.442 206.266 128.361C221.305 124.369 237.09 123.606 252.414 126.082ZM179.51 198.991V139.432C185.746 135.822 192.33 132.828 199.156 130.509V179.35L179.51 198.991ZM257.631 179.723C252.672 198.412 242.785 215.547 229.033 229.301C215.285 243.053 198.138 252.941 179.459 257.902C164.412 261.888 148.633 262.655 133.307 260.17L259.9 133.574C262.381 148.91 261.625 164.684 257.631 179.723ZM191.635 0.812017C140.787 1.25602 92.9747 21.312 57.0097 57.277C16.8597 97.416 -3.48731 152.932 1.19169 209.568C1.20069 209.609 1.20069 209.653 1.20069 209.694C1.34269 211.005 4.84168 242.053 23.9087 261.121C25.3407 262.553 38.4587 275.248 58.8957 281.064C65.5597 282.96 72.2507 283.899 78.9187 283.899C94.2657 283.899 109.461 278.898 123.717 269.066C132.696 271.139 141.867 272.182 151.053 272.182C161.518 272.182 172.008 270.831 182.176 268.133C202.662 262.694 221.451 251.855 236.52 236.791C251.588 221.718 262.428 202.928 267.868 182.444C273.141 162.57 273.266 141.527 268.235 121.594C268.174 121.366 268.1 121.14 268.008 120.928C267.998 120.898 267.987 120.872 267.979 120.847C267.868 120.579 267.725 120.327 267.581 120.091C267.53 120.02 267.485 119.95 267.44 119.879C267.262 119.617 267.065 119.376 266.842 119.148C266.842 119.148 266.842 119.148 266.838 119.148C266.838 119.143 266.838 119.143 266.838 119.143C266.617 118.921 266.369 118.729 266.111 118.548C266.041 118.497 265.97 118.457 265.9 118.412C265.658 118.256 265.406 118.125 265.138 118.009C265.113 118.004 265.093 117.988 265.068 117.984C264.851 117.893 264.625 117.813 264.392 117.757C244.454 112.72 223.415 112.847 203.542 118.126C183.063 123.56 164.271 134.398 149.202 149.463C134.132 164.536 123.292 183.331 117.848 203.814C112.897 222.492 112.493 242.214 116.647 261.069C70.5947 291.913 33.0107 255.242 31.3967 253.632C15.3347 237.566 11.8977 209.944 11.7407 208.617C7.33969 155.113 26.5677 102.687 64.4997 64.76C98.4797 30.77 143.666 11.823 191.73 11.399C239.724 10.976 285.171 29.065 319.707 62.328C321.811 64.36 325.166 64.294 327.193 62.192C329.22 60.085 329.16 56.732 327.058 54.705C290.512 19.506 242.418 0.339017 191.635 0.812017Z" fill="white"/>
</svg>
